<svg xmlns="http://www.w3.org/2000/svg" viewBox="6213.5556640625 4690.37353515625 17.5 9.3642578125"> <path fill="#2542A0" fill-opacity="1" stroke="" stroke-opacity="1" stroke-width="1" id="tSvg29f98c0ad7" d="M 6229.9092640625 4695.4092140625 C 6230.1044640625 4695.2139540625 6230.1044640625 4694.8973740625 6229.9092640625 4694.7021140625 C 6226.7272640625 4691.5201300625 6226.7272640625 4691.5201300625 6226.7272640625 4691.5201300625 C 6226.5319640625 4691.3248680625 6226.2153640625 4691.3248680625 6226.0201640625 4691.5201300625 C 6225.8248640625 4691.7153920625 6225.8248640625 4692.0319750625 6226.0201640625 4692.2272340625 C 6228.8485640625 4695.0556640625 6228.8485640625 4695.0556640625 6228.8485640625 4695.0556640625 C 6228.8485640625 4695.0556640625 6226.0201640625 4697.8840940625 6226.0201640625 4697.8840940625 C 6225.8248640625 4698.0793540625 6225.8248640625 4698.3959340625 6226.0201640625 4698.5911940625 C 6226.2153640625 4698.7864640625 6226.5319640625 4698.7864640625 6226.7272640625 4698.5911940625 C 6229.9092640625 4695.4092140625 6229.9092640625 4695.4092140625 6229.9092640625 4695.4092140625 M 6214.5556640625 4695.5556640625 C 6229.5556640625 4695.5556640625 6229.5556640625 4695.5556640625 6229.5556640625 4695.5556640625 C 6229.5556640625 4695.5556640625 6229.5556640625 4694.5556640625 6229.5556640625 4694.5556640625 C 6229.5556640625 4694.5556640625 6214.5556640625 4694.5556640625 6214.5556640625 4694.5556640625 C 6214.5556640625 4694.5556640625 6214.5556640625 4695.5556640625 6214.5556640625 4695.5556640625"></path> <defs> </defs> </svg>