<!-- icon666.com - MILLIONS vector ICONS FREE --><svg version="1.1" id="Capa_1" xmlns="http://www.w3.org/2000/svg" xmlns:xlink="http://www.w3.org/1999/xlink" x="0px" y="0px" viewBox="0 0 472.612 472.612" style="enable-background:new 0 0 472.612 472.612;" xml:space="preserve"><g><g><path d="M279.207,188.459c-5.438,0-9.846,4.409-9.846,9.846v187.099c0,37.229-30.287,67.516-67.516,67.516 c-37.228,0-67.515-30.287-67.515-67.516V198.305c0-5.438-4.409-9.846-9.846-9.846s-9.846,4.409-9.846,9.846v187.099 c0,48.087,39.121,87.209,87.208,87.209s87.209-39.122,87.209-87.209V198.305C289.053,192.867,284.645,188.459,279.207,188.459z"></path></g></g><g><g><path d="M236.306,0c-67.089,0-121.669,54.581-121.669,121.669v181.45c0,5.438,4.409,9.846,9.846,9.846s9.846-4.409,9.846-9.846 v-181.45c0-56.231,45.747-101.977,101.977-101.977c56.23,0,101.977,45.746,101.977,101.977v181.45 c0,5.438,4.409,9.846,9.846,9.846s9.846-4.409,9.846-9.846v-181.45C357.975,54.581,303.395,0,236.306,0z"></path></g></g><g><g><path d="M237.009,82.988c-28.697,0-52.043,23.346-52.043,52.043V281.8c0,5.438,4.409,9.846,9.846,9.846s9.846-4.409,9.846-9.846 V135.032c0-17.838,14.513-32.351,32.351-32.351c17.838,0,32.352,14.513,32.352,32.351V281.8c0,5.438,4.409,9.846,9.846,9.846 s9.846-4.409,9.846-9.846V135.032C289.053,106.335,265.706,82.988,237.009,82.988z"></path></g></g></svg>