<svg xmlns="http://www.w3.org/2000/svg" viewBox="5663.1796875 4586.216796875 51.6396484375 51.56640625"> <path fill="#2542A0" fill-opacity="1" stroke="" stroke-opacity="1" stroke-width="1" id="tSvg7263138731" d="M 5668.1921 4623.4531 C 5672.95877 4628.2198 5672.95877 4628.2198 5672.95877 4628.2198 C 5672.95877 4628.2198 5671.67682 4629.5003 5671.67682 4629.5003 C 5671.67682 4629.5003 5666.91016 4624.7351 5666.91016 4624.7351 C 5666.91016 4624.7351 5668.1921 4623.4531 5668.1921 4623.4531"></path> <path fill="#2542A0" fill-opacity="1" stroke="" stroke-opacity="1" stroke-width="1" id="tSvg135bb61a561" d="M 5672.83524 4628.0938 C 5677.6005 4632.8604 5677.6005 4632.8604 5677.6005 4632.8604 C 5677.6005 4632.8604 5676.3186 4634.1424 5676.3186 4634.1424 C 5676.3186 4634.1424 5671.55469 4629.3757 5671.55469 4629.3757 C 5671.55469 4629.3757 5672.83524 4628.0938 5672.83524 4628.0938"></path> <path fill="#2542A0" fill-opacity="0.6" stroke="" stroke-opacity="1" stroke-width="1" id="tSvg88d88c18c0" d="M 5672.71163 4620.6621 C 5677.4783 4625.4288 5677.4783 4625.4288 5677.4783 4625.4288 C 5677.4783 4625.4288 5676.1964 4626.7107 5676.1964 4626.7107 C 5676.1964 4626.7107 5671.42969 4621.9441 5671.42969 4621.9441 C 5671.42969 4621.9441 5672.71163 4620.6621 5672.71163 4620.6621"></path> <path fill="#2542A0" fill-opacity="1" stroke="" stroke-opacity="1" stroke-width="1" id="tSvg4dad034b2a" d="M 5676.4954 4624.4478 C 5681.2621 4629.2145 5681.2621 4629.2145 5681.2621 4629.2145 C 5681.2621 4629.2145 5679.9801 4630.4964 5679.9801 4630.4964 C 5679.9801 4630.4964 5675.2148 4625.7298 5675.2148 4625.7298 C 5675.2148 4625.7298 5676.4954 4624.4478 5676.4954 4624.4478 M 5681.9246 4611.4492 C 5686.6898 4616.2159 5686.6898 4616.2159 5686.6898 4616.2159 C 5686.6898 4616.2159 5685.4079 4617.4978 5685.4079 4617.4978 C 5685.4079 4617.4978 5680.6426 4612.7312 5680.6426 4612.7312 C 5680.6426 4612.7312 5681.9246 4611.4492 5681.9246 4611.4492"></path> <path fill="#2542A0" fill-opacity="0.6" stroke="" stroke-opacity="1" stroke-width="1" id="tSvg4341aef5bc" d="M 5685.7116 4615.2344 C 5690.4783 4619.9997 5690.4783 4619.9997 5690.4783 4619.9997 C 5690.4783 4619.9997 5689.1964 4621.2816 5689.1964 4621.2816 C 5689.1964 4621.2816 5684.4297 4616.5163 5684.4297 4616.5163 C 5684.4297 4616.5163 5685.7116 4615.2344 5685.7116 4615.2344"></path> <path fill="#2542A0" fill-opacity="1" stroke="" stroke-opacity="1" stroke-width="1" id="tSvg324e549ddf" d="M 5684.7923 4606.9688 C 5689.5589 4611.7354 5689.5589 4611.7354 5689.5589 4611.7354 C 5689.5589 4611.7354 5688.2784 4613.0174 5688.2784 4613.0174 C 5688.2784 4613.0174 5683.5117 4608.2507 5683.5117 4608.2507 C 5683.5117 4608.2507 5684.7923 4606.9688 5684.7923 4606.9688"></path> <path fill="#2542A0" fill-opacity="1" stroke="" stroke-opacity="1" stroke-width="1" id="tSvg155adc4f4b9" d="M 5689.3835 4611.5605 C 5694.1502 4616.3272 5694.1502 4616.3272 5694.1502 4616.3272 C 5694.1502 4616.3272 5692.8682 4617.6092 5692.8682 4617.6092 C 5692.8682 4617.6092 5688.1016 4612.8425 5688.1016 4612.8425 C 5688.1016 4612.8425 5689.3835 4611.5605 5689.3835 4611.5605"></path> <path fill="#2542A0" fill-opacity="0.6" stroke="" stroke-opacity="1" stroke-width="1" id="tSvg11919daf90b" d="M 5688.4655 4603.293 C 5693.2322 4608.0596 5693.2322 4608.0596 5693.2322 4608.0596 C 5693.2322 4608.0596 5691.9503 4609.3402 5691.9503 4609.3402 C 5691.9503 4609.3402 5687.1836 4604.5749 5687.1836 4604.5749 C 5687.1836 4604.5749 5688.4655 4603.293 5688.4655 4603.293"></path> <path fill="#2542A0" fill-opacity="1" stroke="" stroke-opacity="1" stroke-width="1" id="tSvgff7bdce420" d="M 5693.0579 4607.8859 C 5697.8246 4612.6512 5697.8246 4612.6512 5697.8246 4612.6512 C 5697.8246 4612.6512 5696.5426 4613.9331 5696.5426 4613.9331 C 5696.5426 4613.9331 5691.7773 4609.1665 5691.7773 4609.1665 C 5691.7773 4609.1665 5693.0579 4607.8859 5693.0579 4607.8859 M 5697.869 4593.88867 C 5702.6357 4598.6553 5702.6357 4598.6553 5702.6357 4598.6553 C 5702.6357 4598.6553 5701.3537 4599.9359 5701.3537 4599.9359 C 5701.3537 4599.9359 5696.5871 4595.17062 5696.5871 4595.17062 C 5696.5871 4595.17062 5697.869 4593.88867 5697.869 4593.88867"></path> <path fill="#2542A0" fill-opacity="0.6" stroke="" stroke-opacity="1" stroke-width="1" id="tSvgfae8d36359" d="M 5702.4655 4598.4824 C 5707.2322 4603.2477 5707.2322 4603.2477 5707.2322 4603.2477 C 5707.2322 4603.2477 5705.9503 4604.5296 5705.9503 4604.5296 C 5705.9503 4604.5296 5701.1836 4599.763 5701.1836 4599.763 C 5701.1836 4599.763 5702.4655 4598.4824 5702.4655 4598.4824"></path> <path fill="#2542A0" fill-opacity="1" stroke="" stroke-opacity="1" stroke-width="1" id="tSvg14e7bc2b501" d="M 5701.5163 4590.12695 C 5706.283 4594.89362 5706.283 4594.89362 5706.283 4594.89362 C 5706.283 4594.89362 5705.001 4596.17556 5705.001 4596.17556 C 5705.001 4596.17556 5700.2344 4591.4089 5700.2344 4591.4089 C 5700.2344 4591.4089 5701.5163 4590.12695 5701.5163 4590.12695"></path> <path fill="#2542A0" fill-opacity="1" stroke="" stroke-opacity="1" stroke-width="1" id="tSvg138d0a3a26a" d="M 5706.1648 4594.77734 C 5710.9314 4599.5426 5710.9314 4599.5426 5710.9314 4599.5426 C 5710.9314 4599.5426 5709.6495 4600.8246 5709.6495 4600.8246 C 5709.6495 4600.8246 5704.8828 4596.05929 5704.8828 4596.05929 C 5704.8828 4596.05929 5706.1648 4594.77734 5706.1648 4594.77734"></path> <path fill="#2542A0" fill-opacity="0.6" stroke="" stroke-opacity="1" stroke-width="1" id="tSvgb02f04b122" d="M 5698.6146 4588.12791 C 5695.1146 4591.62791 5695.0021 4596.66263 5695.2868 4601.7474 C 5695.9826 4601.7862 5696.6784 4601.8321 5697.3729 4601.8779 C 5697.9146 4601.914 5698.4493 4601.9487 5698.9826 4601.9807 C 5698.7076 4597.4168 5698.7062 4593.23208 5701.2132 4590.72513 C 5702.2229 4589.74874 5702.5396 4588.4293 5701.834 4587.716798 C 5701.0909 4586.966798 5699.6923 4587.0265203 5698.6146 4588.12791Z"></path> <path fill="#2542A0" fill-opacity="1" stroke="" stroke-opacity="1" stroke-width="1" id="tSvg117ae48263" d="M 5682.2578 4622.6241 C 5682.0453 4618.9297 5682.0453 4618.9297 5682.0453 4618.9297 C 5682.0092 4618.3116 5681.9648 4617.681 5681.9425 4617.0797 C 5681.5314 4616.6685 5678.5175 4616.5949 5678.2578 4616.8547 C 5678.2759 4617.4658 5678.3231 4618.0824 5678.3564 4618.6977 C 5678.3953 4619.3949 5678.5314 4621.8574 5678.5634 4622.3922 C 5678.6384 4623.656 5678.6967 4624.9005 5678.6828 4626.081 C 5679.0425 4626.4408 5681.9759 4626.688 5682.3564 4626.306 C 5682.3676 4625.0779 5682.3348 4623.8498 5682.2578 4622.6241Z"></path> <path fill="#2542A0" fill-opacity="1" stroke="" stroke-opacity="1" stroke-width="1" id="tSvg8d227909a9" d="M 5682.3614 4626.3051 C 5678.6822 4626.0801 5678.6822 4626.0801 5678.6822 4626.0801 C 5678.6461 4629.1481 5678.1489 4631.837 5676.3392 4633.6467 C 5675.9946 4633.9912 5675.8009 4634.4584 5675.8008 4634.9456 C 5675.8007 4635.4328 5675.9941 4635.9001 5676.3385 4636.2447 C 5676.6829 4636.5893 5677.1501 4636.7829 5677.6373 4636.7831 C 5678.1245 4636.7832 5678.5918 4636.5898 5678.9364 4636.2454 C 5682.3017 4632.8815 5682.3628 4626.2815 5682.3614 4626.3051Z"></path> <path fill="#2542A0" fill-opacity="0.6" stroke="" stroke-opacity="1" stroke-width="1" id="tSvg95f749ddbb" d="M 5699.2146 4605.6767 C 5698.5188 4605.6378 5697.8216 4605.592 5697.1271 4605.5461 C 5696.5868 4605.51 5696.0507 4605.4753 5695.5188 4605.4434 C 5695.7938 4610.0059 5695.7952 4614.192 5693.2868 4616.6989 C 5690.7813 4619.2045 5686.6021 4619.2059 5682.0452 4618.9309 C 5681.5091 4618.8989 5679.0466 4618.7364 5678.3563 4618.6975 C 5673.26322 4618.4114 5668.22155 4618.5225 5664.717386 4622.0267 C 5664.372973 4622.3713 5664.179557 4622.8386 5664.179688 4623.3258 C 5664.179818 4623.813 5664.373484 4624.2802 5664.718081 4624.6246 C 5665.06268 4624.969 5665.52998 4625.1624 5666.01718 4625.1623 C 5666.50439 4625.1622 5666.97158 4624.9685 5667.316 4624.6239 C 5669.82294 4622.1184 5674.0035 4622.1156 5678.5632 4622.3906 C 5679.0979 4622.4225 5681.5646 4622.585 5682.2577 4622.6239 C 5687.3438 4622.9086 5692.3813 4622.7975 5695.8841 4619.2961 C 5699.3854 4615.7961 5699.4993 4610.7614 5699.2146 4605.6767Z"></path> <path fill="#2542A0" fill-opacity="1" stroke="" stroke-opacity="1" stroke-width="1" id="tSvg6a80beea0d" d="M 5699.214 4605.6771 C 5699.1751 4604.9812 5699.0126 4602.5146 5698.9806 4601.9826 C 5698.9431 4601.3664 5698.9135 4600.7497 5698.8918 4600.1326 C 5698.4251 4600.1035 5695.9751 4599.9479 5695.207 4599.9062 C 5695.2251 4600.5174 5695.2515 4601.1326 5695.2848 4601.7479 C 5695.3237 4602.4438 5695.4862 4604.9104 5695.5181 4605.4438 C 5695.5945 4606.7132 5695.6445 4607.9493 5695.6306 4609.1326 C 5696.0931 4609.1618 5698.539 4609.316 5699.3043 4609.3576 C 5699.319 4608.1301 5699.2888 4606.9024 5699.214 4605.6771Z"></path> <path fill="#2542A0" fill-opacity="1" stroke="" stroke-opacity="1" stroke-width="1" id="tSvgf1d6d08836" d="M 5713.4168 4599.2595 C 5712.8335 4598.654 5711.4932 4598.4248 5710.2349 4599.7498 C 5707.7279 4602.2567 5703.5446 4602.2581 5698.9793 4601.9817 C 5698.446 4601.9498 5695.9793 4601.7859 5695.2835 4601.747 C 5690.2001 4601.4623 5685.164 4601.5762 5681.664 4605.0762 C 5678.5876 4608.1526 5678.1293 4612.4151 5678.2571 4616.854 C 5679.0251 4616.8956 5681.4779 4617.0512 5681.9418 4617.079 C 5681.8057 4613.2526 5682.0988 4609.8373 5684.2626 4607.6734 C 5686.7696 4605.1665 5690.9543 4605.1665 5695.5182 4605.4415 C 5696.0501 4605.4734 5698.5182 4605.6359 5699.214 4605.6748 C 5704.2988 4605.9595 5709.3335 4605.847 5712.8335 4602.347 C 5714.064 4601.1401 5714.0001 4599.8651 5713.4168 4599.2595Z"></path> <mask x="5664" y="4587" width="50" height="50" id="tSvg39f0ff0df3" maskUnits="userSpaceOnUse"> <path fill="white" fill-opacity="1" stroke="" stroke-opacity="1" stroke-width="1" data-svg-name="path" data-svg-id="9d4eeb44b4" id="tSvg9d4eeb44b4" d="M 5664 4587 C 5714 4587 5714 4587 5714 4587 C 5714 4587 5714 4637 5714 4637 C 5714 4637 5664 4637 5664 4637C 5664 4637 5664 4587 5664 4587 Z"></path> </mask> <defs></defs> </svg>